<svg xmlns="http://www.w3.org/2000/svg" viewBox="0 0 400 400">
  <defs>
    <linearGradient id="treeGradient" x1="0%" y1="100%" x2="100%" y2="0%">
      <stop offset="0%" style="stop-color:#4A90E2;stop-opacity:1" />
      <stop offset="100%" style="stop-color:#81C784;stop-opacity:1" />
    </linearGradient>
    <radialGradient id="glowGradient" cx="50%" cy="50%" r="50%" fx="50%" fy="50%">
      <stop offset="0%" style="stop-color:#FFFFFF;stop-opacity:0.8" />
      <stop offset="100%" style="stop-color:#FFFFFF;stop-opacity:0" />
    </radialGradient>
  </defs>
  
  <!-- Base Tree Structure -->
  <path d="M200 380 L200 100 M140 320 L200 100 L260 320 M100 240 L200 100 L300 240" 
        stroke="url(#treeGradient)" stroke-width="4" fill="none" />
  
  <!-- Connecting Lines -->
  <path d="M100 240 L300 240 M140 320 L260 320" 
        stroke="url(#treeGradient)" stroke-width="2" fill="none" />
  
  <!-- Growth Nodes -->
  <g id="spiritual-direction">
    <circle cx="100" cy="240" r="20" fill="url(#treeGradient)" />
    <circle cx="100" cy="240" r="25" fill="url(#glowGradient)" />
  </g>
  
  <g id="faith-work">
    <circle cx="200" cy="100" r="20" fill="url(#treeGradient)" />
    <circle cx="200" cy="100" r="25" fill="url(#glowGradient)" />
  </g>
  
  <g id="prayer-sacraments">
    <circle cx="300" cy="240" r="20" fill="url(#treeGradient)" />
    <circle cx="300" cy="240" r="25" fill="url(#glowGradient)" />
  </g>
  
  <!-- Cross Symbol -->
  <path d="M190 50 L210 50 L210 70 L230 70 L230 90 L210 90 L210 110 L190 110 L190 90 L170 90 L170 70 L190 70 Z" 
        fill="#FFD700" opacity="0.8" />
  
  <!-- AI-inspired Circuit Lines -->
  <path d="M50 380 L350 380 M50 360 L350 360 M70 340 L330 340" 
        stroke="#4A90E2" stroke-width="1" fill="none" stroke-dasharray="5,5" />
  
  <!-- Labels -->
  <text x="100" y="290" font-family="Arial" font-size="12" fill="#FFFFFF" text-anchor="middle">Spiritual Direction</text>
  <text x="200" y="80" font-family="Arial" font-size="12" fill="#FFFFFF" text-anchor="middle">Faith and Work</text>
  <text x="300" y="290" font-family="Arial" font-size="12" fill="#FFFFFF" text-anchor="middle">Prayer and Sacraments</text>
</svg>